<?xml version="1.0" standalone="no"?>
<!DOCTYPE svg PUBLIC "-//W3C//DTD SVG 20010904//EN"
 "http://www.w3.org/TR/2001/REC-SVG-20010904/DTD/svg10.dtd">
<svg version="1.0" xmlns="http://www.w3.org/2000/svg"
 width="937.000000pt" height="266.000000pt" viewBox="0 0 937.000000 266.000000"
 preserveAspectRatio="xMidYMid meet">

<g transform="translate(0.000000,266.000000) scale(0.100000,-0.100000)"
fill="#000000" stroke="none">
<path d="M1219 2317 c-19 -12 -43 -40 -54 -62 -19 -38 -20 -60 -20 -365 l0
-325 -115 0 -115 0 -3 105 c-2 91 -6 108 -24 127 -27 29 -46 29 -86 -1 -57
-41 -464 -439 -472 -460 -4 -11 -5 -28 -3 -37 5 -17 402 -417 456 -459 15 -12
45 -24 66 -27 35 -5 41 -2 53 21 l14 27 12 -25 c23 -52 128 -192 183 -247 107
-106 297 -215 464 -265 81 -25 106 -27 250 -28 138 -1 172 2 245 22 159 44
282 108 447 234 48 36 136 145 209 256 24 38 29 42 40 28 25 -35 68 -20 156
56 185 159 351 315 379 357 51 77 54 73 -188 308 -241 236 -281 268 -313 258
-37 -12 -49 -46 -56 -153 l-7 -102 -102 0 -102 0 -5 38 c-3 20 -6 98 -7 172
-2 125 -4 138 -26 170 -32 46 -352 352 -396 379 -33 20 -46 21 -440 21 -405 0
-406 0 -440 -23z m900 -94 c36 -32 128 -119 204 -194 l137 -137 2 -374 c0
-205 0 -386 -1 -403 -2 -16 -15 -43 -29 -58 l-27 -28 -6 23 c-4 13 -7 186 -8
386 l-1 362 -148 0 -149 0 -41 30 c-23 16 -45 42 -49 57 -5 16 -8 92 -8 170
l0 142 -29 5 c-39 8 -548 8 -625 0 l-61 -7 0 -561 c0 -309 -3 -571 -6 -584
l-7 -23 -28 27 -29 28 0 573 0 574 25 24 24 25 397 0 397 0 66 -57z m-186 -78
c-5 -16 -545 -13 -551 3 -3 10 54 12 275 10 179 -2 277 -7 276 -13z m-3 -75
c4 -6 5 -44 2 -84 -5 -87 8 -134 51 -183 53 -60 94 -73 235 -73 l122 0 0 -338
0 -337 -62 -20 c-58 -18 -87 -20 -385 -18 -310 2 -372 6 -526 40 -27 5 -28 4
-25 -28 3 -30 12 -40 78 -85 42 -28 109 -61 150 -75 70 -22 89 -24 275 -23
193 0 203 1 275 28 41 15 110 51 153 78 85 56 115 56 52 1 -44 -38 -145 -89
-246 -124 -97 -34 -324 -39 -440 -10 -94 24 -202 72 -266 120 l-43 31 0 555 0
555 208 3 c282 3 384 0 392 -13z m-1080 -461 l0 -129 145 0 146 0 -3 -152 -3
-153 -142 -3 -143 -3 0 -134 c0 -74 -3 -135 -6 -135 -5 0 -293 269 -404 377
l-45 44 220 214 c121 117 223 211 228 208 4 -2 7 -62 7 -134z m2029 79 c31
-29 130 -123 220 -210 l164 -158 -19 -21 c-10 -12 -111 -107 -224 -210 l-205
-188 -3 134 -3 135 -137 0 -137 0 0 155 0 155 138 0 137 0 0 130 c0 72 3 130
7 130 3 0 31 -24 62 -52z m-1780 -600 c6 -7 33 -40 60 -74 51 -64 93 -99 176
-151 260 -163 546 -194 825 -90 135 51 194 91 317 215 99 99 115 112 138 106
20 -5 25 -12 25 -36 0 -20 4 -27 12 -22 8 5 9 2 5 -10 -4 -10 -7 -26 -7 -37 0
-10 -5 -19 -11 -19 -5 0 -7 5 -3 12 4 7 3 8 -4 4 -7 -4 -12 -15 -12 -24 0 -10
-6 -26 -14 -37 -7 -11 -17 -31 -21 -45 l-8 -25 22 25 c20 22 21 22 12 3 -18
-37 -12 -40 9 -5 11 18 17 38 14 44 -4 6 -3 9 2 5 5 -3 25 23 44 59 69 130 41
16 -32 -130 -42 -83 -64 -114 -136 -186 -138 -136 -260 -207 -452 -261 -121
-33 -316 -34 -445 0 -118 30 -294 115 -374 179 -136 109 -237 259 -298 437
l-23 70 23 -27 c23 -26 51 -77 61 -111 3 -10 10 -16 15 -13 5 3 7 -2 4 -13 -3
-10 1 -22 8 -27 9 -5 11 -2 6 9 -3 10 -2 17 3 17 6 0 10 7 10 15 0 8 -5 15
-11 15 -5 0 -8 4 -5 9 3 5 1 23 -5 40 -15 42 -5 79 24 84 12 2 25 5 29 6 4 0
12 -5 17 -11z"/>
<path d="M2070 2037 c0 -105 3 -126 18 -140 13 -12 47 -16 150 -19 72 -1 132
-1 132 2 0 7 -287 280 -294 280 -3 0 -6 -56 -6 -123z m125 -43 l70 -65 -66 2
-66 2 -10 64 c-5 34 -7 63 -4 63 3 -1 38 -30 76 -66z"/>
<path d="M1730 1654 c-19 -8 -45 -25 -58 -37 -27 -25 -62 -88 -62 -112 0 -10
-10 -15 -29 -15 -34 0 -85 -39 -106 -81 -38 -72 -6 -189 64 -236 33 -22 40
-23 290 -23 246 0 257 1 295 23 22 12 49 37 60 56 54 93 -14 251 -108 251 -28
0 -34 5 -45 37 -17 46 -88 118 -135 138 -45 19 -121 19 -166 -1z m160 -92 c41
-20 80 -89 80 -139 l0 -34 49 7 c57 7 85 -4 107 -47 18 -35 12 -77 -15 -105
-16 -18 -34 -19 -264 -17 -136 1 -255 4 -265 8 -31 9 -56 66 -48 108 8 45 38
67 92 67 l42 0 7 48 c9 61 19 79 58 102 40 25 110 26 157 2z"/>
<path d="M2580 1234 c0 -14 9 -16 51 -12 78 8 87 28 11 28 -51 0 -62 -3 -62
-16z"/>
<path d="M1047 876 c29 -49 131 -176 166 -205 62 -55 136 -104 192 -131 28
-13 61 -29 75 -35 16 -8 33 -10 48 -4 12 5 29 6 37 3 8 -4 15 -2 15 3 0 6 -19
16 -42 23 -104 31 -233 109 -335 204 -40 37 -77 65 -83 61 -13 -8 -13 8 1 22
8 8 7 13 -2 18 -7 5 -10 4 -5 -3 3 -6 2 -13 -3 -16 -8 -5 -25 29 -22 46 0 4
-7 4 -16 1 -12 -5 -15 -2 -11 9 4 8 1 15 -8 15 -7 0 -10 -5 -7 -11z m103 -101
c11 -13 10 -14 -4 -9 -9 3 -16 10 -16 15 0 13 6 11 20 -6z"/>
<path d="M2460 730 c-53 -53 -115 -102 -163 -130 -42 -25 -77 -52 -77 -60 0
-12 -2 -13 -9 -1 -7 11 -14 11 -39 -2 -17 -8 -63 -21 -103 -28 -59 -10 -67
-14 -48 -21 12 -5 29 -6 37 -3 8 3 21 0 29 -6 7 -7 16 -9 20 -5 3 3 0 6 -8 6
-8 0 -1 7 15 15 32 17 49 20 26 5 -9 -6 -10 -10 -3 -10 6 0 15 5 18 10 4 6 10
8 15 5 14 -8 119 35 130 53 5 9 10 14 10 9 0 -11 80 41 120 79 19 18 56 53 82
77 26 23 51 54 56 68 19 48 -21 26 -108 -61z"/>
<path d="M1630 491 c0 -12 39 -25 47 -17 4 3 1 6 -6 6 -7 0 -9 5 -6 10 3 6 -3
10 -14 10 -12 0 -21 -4 -21 -9z"/>
<path d="M1863 473 c9 -2 23 -2 30 0 6 3 -1 5 -18 5 -16 0 -22 -2 -12 -5z"/>
<path d="M1938 473 c7 -3 16 -2 19 1 4 3 -2 6 -13 5 -11 0 -14 -3 -6 -6z"/>
<path d="M860 2271 c-5 -11 -10 -29 -10 -40 0 -19 -6 -21 -52 -21 -63 0 -110
-25 -133 -70 -9 -18 -19 -29 -22 -26 -3 3 -14 -5 -24 -17 -15 -19 -21 -20 -38
-9 -26 15 -27 2 -2 -29 17 -21 21 -22 36 -9 9 8 20 23 24 34 6 16 11 12 35
-28 31 -53 57 -63 121 -47 64 16 68 15 63 -20 -4 -27 -3 -30 16 -24 12 4 36 7
54 6 40 -1 92 25 150 74 52 46 57 87 15 126 -68 62 -166 119 -202 119 -11 0
-25 -9 -31 -19z m128 -85 c40 -26 72 -52 71 -59 0 -13 -151 -117 -169 -117 -7
0 -5 9 4 22 9 12 16 27 16 33 0 14 -142 14 -153 0 -9 -13 -47 31 -47 55 0 9 8
25 19 34 15 14 31 16 101 10 79 -7 83 -6 77 12 -20 66 -20 67 -6 62 8 -3 47
-27 87 -52z"/>
<path d="M2835 2220 c-3 -6 -49 -10 -101 -10 -101 0 -144 -13 -164 -49 -21
-40 -11 -72 33 -116 l42 -42 140 2 c140 1 165 7 197 42 32 35 32 66 -2 108
-17 22 -43 47 -58 57 -30 20 -77 24 -87 8z m94 -59 c17 -16 31 -33 31 -39 0
-15 -39 -61 -62 -73 -18 -10 -20 -9 -15 5 6 15 -4 17 -100 15 -106 -2 -108 -1
-143 29 -34 29 -34 31 -15 45 24 18 84 27 181 27 43 0 74 4 74 10 0 17 17 11
49 -19z"/>
<path d="M449 1962 c-21 -15 -25 -52 -7 -70 14 -14 421 -15 473 -2 17 4 -78 8
-210 9 -252 1 -274 5 -254 43 9 16 25 18 157 19 173 2 169 7 -11 11 -96 3
-133 1 -148 -10z"/>
<path d="M2746 1965 c-20 -15 -18 -45 6 -78 12 -16 37 -18 232 -23 197 -5 220
-4 237 12 20 18 25 49 10 58 -5 3 -11 -3 -14 -14 -5 -19 -14 -20 -225 -20
-212 0 -221 1 -227 20 -10 33 3 40 78 40 50 0 67 3 57 10 -23 15 -132 12 -154
-5z"/>
<path d="M3860 1945 c-63 -30 -104 -71 -134 -135 -20 -43 -21 -59 -21 -380 0
-327 1 -336 22 -381 30 -59 77 -107 133 -133 37 -17 64 -21 150 -21 91 0 111
3 150 23 96 50 140 117 148 223 2 38 0 69 -5 72 -6 4 -36 9 -67 13 l-56 7 0
-57 c0 -67 -18 -106 -62 -137 -27 -20 -45 -24 -109 -24 -84 0 -111 12 -153 69
-20 26 -21 42 -24 333 -3 289 -2 307 17 347 26 52 67 77 140 83 45 4 68 1 104
-15 62 -28 87 -69 87 -146 l0 -59 46 7 c26 3 56 6 67 6 18 0 19 5 15 73 -5 82
-29 135 -80 183 -59 56 -93 68 -208 72 -96 3 -110 1 -160 -23z"/>
<path d="M7960 1881 l0 -78 70 -2 70 -1 0 80 0 80 -70 0 -70 0 0 -79z"/>
<path d="M7560 1846 l-55 -11 -3 -83 -3 -82 -59 0 c-57 0 -59 -1 -62 -27 -2
-16 -1 -43 1 -60 l3 -33 58 0 58 0 4 -242 c3 -149 9 -253 15 -269 18 -40 69
-95 107 -113 19 -9 68 -19 110 -23 l76 -6 0 62 0 61 -52 0 c-61 0 -114 27
-123 62 -3 13 -4 122 -3 243 l3 220 88 3 87 3 0 59 0 60 -90 0 -90 0 0 95 c0
52 -3 94 -7 94 -5 -1 -33 -6 -63 -13z"/>
<path d="M4607 1666 c-55 -20 -104 -62 -129 -109 -21 -39 -23 -58 -26 -248 -4
-226 1 -263 48 -327 48 -67 97 -87 210 -87 79 0 102 4 137 22 51 27 96 82 112
132 14 47 15 421 1 471 -13 48 -63 106 -113 132 -53 27 -184 35 -240 14z m191
-122 c46 -32 52 -60 52 -259 0 -199 -6 -227 -52 -259 -29 -21 -129 -21 -168
-1 -16 8 -34 24 -40 34 -6 12 -10 104 -10 228 0 223 3 233 55 261 31 17 137
15 163 -4z"/>
<path d="M5310 1668 c-19 -5 -50 -21 -69 -35 -33 -25 -34 -26 -47 -7 -26 37
-35 44 -60 44 l-24 0 2 -382 3 -383 60 0 60 0 2 290 c2 205 6 297 15 313 18
34 59 52 120 52 67 0 98 -16 120 -60 16 -31 18 -69 18 -317 l0 -283 61 0 60 0
-3 313 -3 312 -30 45 c-63 93 -171 131 -285 98z"/>
<path d="M6515 1668 c-64 -23 -105 -60 -135 -123 -17 -36 -20 -64 -20 -258 0
-244 4 -265 67 -329 51 -53 115 -72 215 -65 94 6 155 37 194 99 29 45 53 153
38 167 -11 11 -111 30 -119 23 -3 -3 -5 -28 -5 -56 -1 -84 -40 -116 -141 -116
-58 0 -64 2 -95 36 -33 35 -34 37 -34 125 l0 89 201 0 201 0 -4 123 c-3 101
-8 130 -26 169 -25 51 -75 94 -131 114 -43 16 -164 17 -206 2z m184 -122 c15
-8 32 -26 39 -41 13 -28 17 -135 5 -135 -5 0 -64 -1 -133 -1 l-125 -1 0 67 c0
63 2 68 33 96 28 25 40 29 93 29 33 0 72 -6 88 -14z"/>
<path d="M7225 1671 c-35 -9 -73 -28 -96 -48 -15 -13 -19 -11 -39 17 -17 24
-29 30 -49 28 l-26 -3 -2 -350 c-1 -192 0 -365 3 -383 l5 -33 57 3 57 3 5 285
c3 157 9 293 13 302 16 32 60 51 129 56 l68 5 0 63 0 64 -47 -1 c-27 -1 -61
-4 -78 -8z"/>
<path d="M8411 1667 c-50 -19 -111 -75 -132 -121 -16 -36 -19 -68 -19 -261 0
-250 5 -272 77 -336 49 -45 119 -63 212 -57 82 6 142 35 181 89 44 62 53 120
49 340 l-4 196 -30 49 c-19 29 -49 60 -77 77 -41 26 -59 30 -135 33 -56 2
-100 -1 -122 -9z m188 -122 c48 -25 56 -60 56 -266 0 -203 -6 -228 -57 -255
-37 -19 -137 -18 -166 2 -46 32 -52 60 -52 259 0 199 6 227 52 259 29 20 129
21 167 1z"/>
<path d="M5690 1665 c0 -3 20 -60 44 -128 36 -101 120 -337 207 -582 16 -45
20 -50 51 -53 l34 -3 58 163 c32 90 78 219 103 288 24 69 59 166 77 215 19 50
31 93 29 98 -2 4 -30 7 -62 7 l-58 0 -21 -62 c-61 -185 -146 -424 -153 -432
-10 -11 -12 -6 -104 261 -41 117 -77 217 -80 223 -6 10 -125 15 -125 5z"/>
<path d="M7965 1657 c-3 -6 -4 -179 -3 -382 l3 -370 63 -3 62 -3 0 386 0 385
-60 0 c-39 0 -62 -4 -65 -13z"/>
<path d="M424 715 c-23 -24 -24 -26 -9 -54 19 -39 42 -51 74 -41 23 7 188 19
331 24 l45 1 9 -42 c5 -26 14 -43 23 -43 14 0 13 12 -4 58 -10 25 25 11 101
-43 43 -30 81 -57 83 -59 3 -2 -8 -11 -25 -20 -16 -8 -32 -13 -34 -10 -3 2
-11 -3 -19 -13 -12 -14 -12 -16 0 -8 10 5 12 4 7 -4 -4 -6 -15 -10 -24 -9 -9
2 -17 -3 -17 -9 0 -7 -17 -24 -38 -38 -40 -27 -47 -19 -22 25 8 14 14 29 15
34 0 5 -39 6 -89 2 -85 -7 -90 -6 -105 16 -21 30 -20 44 4 68 18 18 19 21 4
27 -34 13 -49 -11 -48 -73 2 -78 30 -104 110 -104 48 0 56 -3 63 -23 5 -13 16
-29 25 -36 33 -27 167 39 228 113 24 28 23 63 -2 71 -11 3 -28 19 -39 34 -11
16 -50 47 -86 71 -36 23 -65 48 -65 56 0 21 -20 27 -33 10 -10 -14 -43 -17
-207 -23 -187 -5 -196 -5 -213 14 -17 19 -17 22 -2 37 15 15 15 16 0 16 -9 0
-27 -11 -41 -25z"/>
<path d="M3210 711 c0 -40 -22 -44 -188 -38 -176 7 -171 1 38 -39 l134 -26 33
36 c37 41 39 48 17 70 -21 21 -34 20 -34 -3z"/>
<path d="M2694 620 c-45 -10 -100 -46 -126 -82 -21 -31 -21 -31 -2 -67 17 -31
154 -141 176 -141 5 0 25 15 45 34 26 23 51 35 81 39 53 6 79 28 93 77 9 30 8
43 -5 69 -10 17 -27 36 -39 40 -52 19 -129 42 -131 39 -12 -18 -23 -57 -19
-62 4 -3 36 -6 73 -6 71 0 90 -10 90 -46 0 -44 -27 -57 -103 -50 l-69 6 6 -33
c3 -18 3 -36 0 -40 -7 -7 -154 103 -154 115 0 5 32 31 70 59 39 28 70 53 70
55 0 5 -19 3 -56 -6z"/>
<path d="M3130 525 c-7 -8 -16 -12 -21 -9 -5 3 -12 -1 -15 -10 -10 -26 -36
-28 -61 -5 -20 20 -23 20 -23 5 0 -27 19 -56 37 -56 9 0 27 10 40 21 l22 22
20 -24 c19 -23 19 -24 40 -5 27 25 27 36 -1 33 -18 -1 -23 3 -22 21 1 26 0 26
-16 7z"/>
</g>
</svg>
